<svg xmlns="http://www.w3.org/2000/svg" viewBox="0 0 760 184" role="img" aria-labelledby="title desc">
  <title id="title">OmniBranch</title>
  <desc id="desc">OmniBranch wordmark for dark backgrounds with a circular branch orchestration symbol.</desc>
  <defs>
    <linearGradient id="brand" x1="25" y1="20" x2="170" y2="170" gradientUnits="userSpaceOnUse"><stop stop-color="#A5B4FC"/><stop offset="0.5" stop-color="#818CF8"/><stop offset="1" stop-color="#22D3EE"/></linearGradient>
    <linearGradient id="word" x1="390" y1="40" x2="712" y2="145" gradientUnits="userSpaceOnUse"><stop stop-color="#A5B4FC"/><stop offset="1" stop-color="#67E8F9"/></linearGradient>
  </defs>
  <g transform="translate(10 10) scale(.64)">
    <rect x="12" y="12" width="232" height="232" rx="62" fill="#080B1A" stroke="#312E81" stroke-width="3"/>
    <path d="M188 51A91 91 0 1 0 211 174" fill="none" stroke="url(#brand)" stroke-width="17" stroke-linecap="round"/>
    <path d="M72 88h37c13 0 24 11 24 24v33c0 13 11 24 24 24h30M133 112l36-36h25M133 145l-34 34H73" fill="none" stroke="url(#brand)" stroke-width="10" stroke-linecap="round" stroke-linejoin="round"/>
    <g fill="#E0F2FE" stroke="#818CF8" stroke-width="6"><circle cx="72" cy="88" r="10"/><circle cx="194" cy="76" r="10"/><circle cx="187" cy="169" r="10"/><circle cx="73" cy="179" r="10"/></g>
    <circle cx="133" cy="128" r="13" fill="#22D3EE" stroke="#E0E7FF" stroke-width="5"/>
  </g>
  <text x="190" y="116" fill="#F8FAFC" font-family="Inter, ui-sans-serif, system-ui, -apple-system, Segoe UI, sans-serif" font-size="72" font-weight="750" letter-spacing="-3">Omni</text>
  <text x="374" y="116" fill="url(#word)" font-family="Inter, ui-sans-serif, system-ui, -apple-system, Segoe UI, sans-serif" font-size="72" font-weight="750" letter-spacing="-3">Branch</text>
  <text x="194" y="148" fill="#94A3B8" font-family="Inter, ui-sans-serif, system-ui, -apple-system, Segoe UI, sans-serif" font-size="17" font-weight="600" letter-spacing="3">ORCHESTRATE WITH EVIDENCE</text>
</svg>
